<svg width="143" height="55" viewBox="0 0 143 55" fill="none" xmlns="http://www.w3.org/2000/svg">
<path d="M142.261 7.45993C142.261 11.5321 139.141 14.8291 134.199 14.8291C129.345 14.8291 126.305 11.5359 126.305 7.45993C126.305 3.11933 129.432 3.4294e-06 134.286 3.4294e-06C139.141 -0.00377758 142.177 3.11933 142.261 7.45993Z" fill="#EC1E24"/>
<path d="M13.4453 54.4123L0 7.41063H16.8255L20.2095 24.8411C21.2455 30.282 22.2853 36.5622 23.1549 41.3717H23.325C24.2854 36.0707 25.4953 30.4219 26.796 24.6974L30.5241 7.40686H47.2664L50.9075 25.533C51.9435 30.902 52.7224 35.719 53.5013 41.0843H53.6828C54.5486 35.7795 55.5846 30.2063 56.6282 24.6936L60.0991 7.40308H75.9718L61.5775 54.4048H44.4836L40.5891 35.9913C39.7119 31.8775 38.9406 27.484 38.1617 21.9032H37.984C37.0312 27.484 36.2523 31.8775 35.2087 36.0631L30.785 54.4048H13.4453V54.4123ZM93.3266 54.4123H109.022V18.0088H124.206V7.41063H78.4143V18.0088H93.3266V54.4123ZM126.392 54.4123H142.087V20.0959H126.392V54.4123Z" fill="#222C62"/>
</svg>
